<?xml version="1.0" encoding="UTF-8" standalone="no"?>
<!-- Created with Inkscape (http://www.inkscape.org/) -->

<svg
   xmlns:dc="http://purl.org/dc/elements/1.1/"
   xmlns:cc="http://creativecommons.org/ns#"
   xmlns:rdf="http://www.w3.org/1999/02/22-rdf-syntax-ns#"
   xmlns:svg="http://www.w3.org/2000/svg"
   xmlns="http://www.w3.org/2000/svg"
   xmlns:sodipodi="http://sodipodi.sourceforge.net/DTD/sodipodi-0.dtd"
   xmlns:inkscape="http://www.inkscape.org/namespaces/inkscape"
   width="30mm"
   height="30mm"
   viewBox="0 0 30 30"
   version="1.1"
   id="svg827"
   inkscape:version="0.92.3 (2405546, 2018-03-11)"
   sodipodi:docname="drawing.svg">
  <defs
     id="defs821" />
  <sodipodi:namedview
     id="base"
     pagecolor="#ffffff"
     bordercolor="#666666"
     borderopacity="1.0"
     inkscape:pageopacity="0.0"
     inkscape:pageshadow="2"
     inkscape:zoom="1.979899"
     inkscape:cx="57.670855"
     inkscape:cy="42.956736"
     inkscape:document-units="mm"
     inkscape:current-layer="layer1"
     showgrid="false"
     inkscape:window-width="1920"
     inkscape:window-height="1030"
     inkscape:window-x="0"
     inkscape:window-y="0"
     inkscape:window-maximized="1" />
  <metadata
     id="metadata824">
    <rdf:RDF>
      <cc:Work
         rdf:about="">
        <dc:format>image/svg+xml</dc:format>
        <dc:type
           rdf:resource="http://purl.org/dc/dcmitype/StillImage" />
        <dc:title></dc:title>
      </cc:Work>
    </rdf:RDF>
  </metadata>
  <g
     inkscape:label="Layer 1"
     inkscape:groupmode="layer"
     id="layer1"
     transform="translate(0,-267)">
    <path
       inkscape:connector-curvature="0"
       d="M 2.7645684,275.88227 H 27.235431 c 1.12566,0 2.039252,-0.91355 2.039252,-2.03922 0,-1.12566 -0.913592,-2.03925 -2.039252,-2.03925 H 2.7645684 c -1.1256597,0 -2.03925143,0.91359 -2.03925143,2.03925 0,1.12566 0.91359173,2.03922 2.03925143,2.03922 z m 24.4708626,4.0785 H 2.7645684 c -1.1256597,0 -2.03925143,0.91356 -2.03925143,2.03922 0,1.12566 0.91359173,2.03925 2.03925143,2.03925 H 27.235431 c 1.12566,0 2.039252,-0.91359 2.039252,-2.03925 0,-1.12566 -0.913592,-2.03922 -2.039252,-2.03922 z m 0,8.15693 H 2.7645684 c -1.1256597,0 -2.03925143,0.91359 -2.03925143,2.03924 0,1.12566 0.91359173,2.03925 2.03925143,2.03925 H 27.235431 c 1.12566,0 2.039252,-0.91359 2.039252,-2.03925 0,-1.12565 -0.913592,-2.03924 -2.039252,-2.03924 z"
       id="path3"
       style="fill:#000000;fill-opacity:1;stroke-width:1.01961923" />
  </g>
</svg>
